<svg viewBox="0 0 32 32" xml:space="preserve" xmlns="http://www.w3.org/2000/svg"><path fill="none" d="M0 0h32v32H0z"></path><path d="M22 8h-4V2h-4v6h-4l6 6 6-6zm1 6a8.96 8.96 0 0 0-5.652 2H2v8h12.059c.498 4.5 4.308 8 8.941 8 4.971 0 9-4.028 9-8.999A9 9 0 0 0 23 14zM8 22.001H4v-2h4v2zM23 30a7.01 7.01 0 0 1-7-6.999 7.008 7.008 0 0 1 7-7 7.01 7.01 0 0 1 6.999 7A7.011 7.011 0 0 1 23 30z" fill="#abb0c4" class="fill-abb0c4"></path><path d="M26.144 22.001c.008-.131.014-.267.014-.409-.006-.678-.088-1.491-.556-2.258-.457-.779-1.438-1.36-2.602-1.333-1.165-.027-2.148.554-2.605 1.333-.47.767-.552 1.58-.556 2.258 0 .143.006.278.014.409H19V27h8v-4.999h-.856zm-4.307-.409c-.004-.478.093-.958.254-1.198.173-.226.27-.365.909-.393.637.027.73.165.904.393.162.24.259.723.253 1.198 0 .145-.008.28-.019.409h-2.282a5.346 5.346 0 0 1-.019-.409z" fill="#abb0c4" class="fill-abb0c4"></path></svg>