<svg xmlns="http://www.w3.org/2000/svg" version="1.1" xmlns:xlink="http://www.w3.org/1999/xlink" xmlns:svgjs="http://svgjs.com/svgjs" width="512" height="512" x="0" y="0" viewBox="0 0 512 512" class="cls-1"><path d="M432 192H306.75c-27.99 0-50.75-22.76-50.75-50.75V16c0-5.76 1.52-11.24 4.27-16H98.75C79.59 0 64 15.59 64 34.75v442.5C64 496.41 79.59 512 98.75 512h314.5c19.16 0 34.75-15.59 34.75-34.75V187.73a31.903 31.903 0 0 1-16 4.27zM196.69 292.69c6.25-6.25 16.37-6.25 22.62 0L240 313.37V216c0-8.84 7.16-16 16-16s16 7.16 16 16v97.37l20.69-20.68c6.24-6.25 16.38-6.25 22.62 0 6.25 6.24 6.25 16.38 0 22.62l-48 48c-3.373 3.46-8.231 5.022-12.85 4.62-8.012-1.07-5.485-.335-57.77-52.62-6.25-6.24-6.25-16.38 0-22.62zM336 432H176c-8.84 0-16-7.16-16-16s7.16-16 16-16h160c8.84 0 16 7.16 16 16s-7.16 16-16 16zm-29.25-272H432L288 16v125.25c0 10.34 8.41 18.75 18.75 18.75z" class="cls-1"></path></svg>
