<svg width="527" height="438" viewBox="0 0 527 438" fill="none" xmlns="http://www.w3.org/2000/svg">
  <path d="M527 438C527 438 491.967 438 3.63069e-06 438C-4.27547e-06 322.763 3.19422e-06 0 3.19422e-06 0C358.34 39.41 527 438 527 438Z" fill="#450173"/>
  <path d="M357.056 438C357.056 438 331.993 438 2.49063e-06 438C-2.93295e-06 364.069 2.19122e-06 157 2.19122e-06 157C245.819 182.284 357.056 438 357.056 438Z" fill="#5d009c"/>
  <path d="M201.34 438C201.34 438 187.207 438 1.40444e-06 438C-1.65386e-06 394.852 1.2356e-06 274 1.2356e-06 274C138.615 288.756 201.34 438 201.34 438Z" fill="#8700e3"/>
</svg>