<?xml version="1.0" ?><!DOCTYPE svg  PUBLIC '-//W3C//DTD SVG 1.1//EN'  'http://www.w3.org/Graphics/SVG/1.1/DTD/svg11.dtd'><svg height="40px" id="el_x5F_documents" style="enable-background:new 0 0 40 40;" version="1.1" viewBox="0 0 40 40" width="40px" xml:space="preserve" xmlns="http://www.w3.org/2000/svg" xmlns:xlink="http://www.w3.org/1999/xlink"><path d="M32.004,10.547c0-0.366-0.129-0.677-0.387-0.934l-7.225-7.225c-0.258-0.258-0.57-0.387-0.934-0.387  h-0.453v9h8.998V10.547z M21.006,12.997V2.001H7.329c-0.728,0-1.318,0.596-1.318,1.32v33.346c0,0.728,0.593,1.317,1.318,1.317  h23.354c0.729,0,1.32-0.594,1.32-1.316V12.995L21.006,12.997L21.006,12.997z M21.013,34.416H17.56v-3.453h3.453V34.416z   M25.053,23.55c-0.432,0.68-1.35,1.607-2.761,2.777c-0.729,0.608-1.183,1.095-1.359,1.465c-0.178,0.37-0.257,1.027-0.24,1.98h-3.136  c-0.009-0.453-0.012-0.727-0.012-0.825c0-1.017,0.167-1.851,0.503-2.505c0.335-0.659,1.011-1.393,2.019-2.215  c1.007-0.817,1.611-1.354,1.804-1.61c0.307-0.398,0.458-0.844,0.458-1.326c0-0.671-0.269-1.244-0.807-1.729  c-0.536-0.479-1.258-0.719-2.169-0.719c-0.877,0-1.61,0.251-2.203,0.752c-0.587,0.5-0.994,1.264-1.218,2.285l-3.167-0.394  c0.088-1.47,0.714-2.715,1.871-3.737c1.163-1.023,2.682-1.536,4.57-1.536c1.982,0,3.561,0.521,4.736,1.558  c1.17,1.035,1.758,2.24,1.758,3.62C25.7,22.149,25.482,22.87,25.053,23.55z" style="fill:#9e9e9e;"/></svg>