<svg xmlns="http://www.w3.org/2000/svg" version="1.1" xmlns:xlink="http://www.w3.org/1999/xlink" xmlns:svgjs="http://svgjs.com/svgjs" width="35" height="35" x="0" y="0" viewBox="0 0 35 35" xml:space="preserve" class="">
<g data-bx-workspace="master" xmlns="http://www.w3.org/2000/svg" xmlns:bx="https://boxy-svg.com" viewBox="0 0 35 35" class=""><defs></defs><path fill="#3498db" d="M 4.199 28.93 C 3.293 28.93 2.517 28.59 1.871 27.909 C 1.226 27.228 0.904 26.408 0.904 25.455 L 0.904 4.606 C 0.904 3.65 1.227 2.832 1.874 2.151 C 2.519 1.47 3.295 1.13 4.199 1.131 L 12.728 1.131 C 13.167 1.131 13.586 1.217 13.985 1.391 C 14.384 1.565 14.734 1.812 15.035 2.13 L 17.383 4.606 L 30.566 4.606 C 31.472 4.606 32.248 4.946 32.894 5.627 C 33.541 6.308 33.863 7.127 33.861 8.08 L 7.496 8.08 C 6.589 8.08 5.813 8.421 5.168 9.102 C 4.521 9.783 4.199 10.602 4.199 11.555 L 4.199 25.455 L 7.454 14.032 C 7.674 13.28 8.08 12.678 8.671 12.229 C 9.262 11.778 9.915 11.554 10.626 11.555 L 31.884 11.555 C 33.011 11.555 33.896 12.026 34.541 12.968 C 35.188 13.91 35.36 14.93 35.057 16.029 L 32.09 26.454 C 31.871 27.207 31.465 27.807 30.874 28.258 C 30.283 28.707 29.632 28.931 28.918 28.93 L 4.199 28.93 Z" style=""></path></g>
</svg>