<svg preserveAspectRatio="none" id="svg" viewBox="0 0 1440 200" xmlns="http://www.w3.org/2000/svg" class="transition duration-300 ease-in-out delay-150"><defs><linearGradient id="gradient" x1="0%" y1="50%" x2="100%" y2="50%"><stop offset="5%" stop-color="#002bdc"></stop><stop offset="95%" stop-color="#32ded4"></stop></linearGradient></defs><path d="M 0,400 C 0,400 0,80 0,80 C 99.99043062200957,94.86124401913875 199.98086124401914,109.72248803827752 299,105 C 398.01913875598086,100.27751196172248 496.0669856459331,75.97129186602871 593,74 C 689.9330143540669,72.02870813397129 785.7511961722487,92.39234449760767 886,90 C 986.2488038277513,87.60765550239233 1090.9282296650717,62.45933014354066 1184,57 C 1277.0717703349283,51.54066985645934 1358.5358851674641,65.77033492822967 1440,80 C 1440,80 1440,400 1440,400 Z" stroke="none" stroke-width="0" fill="url(#gradient)" fill-opacity="0.265" class="transition-all duration-300 ease-in-out delay-150 path-0"></path><defs><linearGradient id="gradient" x1="0%" y1="50%" x2="100%" y2="50%"><stop offset="5%" stop-color="#002bdc"></stop><stop offset="95%" stop-color="#32ded4"></stop></linearGradient></defs><path d="M 0,400 C 0,400 0,160 0,160 C 77.46411483253587,158.21052631578948 154.92822966507174,156.42105263157896 260,164 C 365.07177033492826,171.57894736842104 497.7511961722489,188.52631578947367 592,180 C 686.2488038277511,171.47368421052633 742.0669856459328,137.47368421052633 837,132 C 931.9330143540672,126.52631578947367 1065.980861244019,149.57894736842107 1173,159 C 1280.019138755981,168.42105263157893 1360.0095693779904,164.21052631578948 1440,160 C 1440,160 1440,400 1440,400 Z" stroke="none" stroke-width="0" fill="url(#gradient)" fill-opacity="0.4" class="transition-all duration-300 ease-in-out delay-150 path-1"></path><defs><linearGradient id="gradient" x1="0%" y1="50%" x2="100%" y2="50%"><stop offset="5%" stop-color="#002bdc"></stop><stop offset="95%" stop-color="#32ded4"></stop></linearGradient></defs><path d="M 0,400 C 0,400 0,240 0,240 C 118.50717703349281,246.1913875598086 237.01435406698562,252.38277511961718 334,258 C 430.9856459330144,263.6172248803828 506.4497607655502,268.6602870813398 577,259 C 647.5502392344498,249.33971291866024 713.1866028708135,224.9760765550239 824,219 C 934.8133971291865,213.0239234449761 1090.8038277511962,225.4354066985646 1201,232 C 1311.1961722488038,238.5645933014354 1375.598086124402,239.28229665071768 1440,240 C 1440,240 1440,400 1440,400 Z" stroke="none" stroke-width="0" fill="url(#gradient)" fill-opacity="0.53" class="transition-all duration-300 ease-in-out delay-150 path-2"></path><defs><linearGradient id="gradient" x1="0%" y1="50%" x2="100%" y2="50%"><stop offset="5%" stop-color="#002bdc"></stop><stop offset="95%" stop-color="#32ded4"></stop></linearGradient></defs><path d="M 0,400 C 0,400 0,320 0,320 C 83.15789473684208,309.99043062200957 166.31578947368416,299.98086124401914 261,295 C 355.68421052631584,290.01913875598086 461.8947368421053,290.06698564593296 561,296 C 660.1052631578947,301.93301435406704 752.1052631578947,313.75119617224885 857,316 C 961.8947368421053,318.24880382775115 1079.6842105263158,310.92822966507174 1179,310 C 1278.3157894736842,309.07177033492826 1359.157894736842,314.53588516746413 1440,320 C 1440,320 1440,400 1440,400 Z" stroke="none" stroke-width="0" fill="url(#gradient)" fill-opacity="1" class="transition-all duration-300 ease-in-out delay-150 path-3"></path></svg>
